<svg height="511pt" viewBox="0 -17 511.99944 511" width="511pt" xmlns="http://www.w3.org/2000/svg"><path d="m425.792969 353.179688c-19.941407-31.539063-42.757813-60.242188-67.824219-85.308594-5.851562-5.851563-5.851562-15.359375 0-21.210938 5.851562-5.851562 15.359375-5.851562 21.210938 0 22.074218 22.070313 42.53125 46.753906 60.8125 73.34375 3.171874 4.476563 8.339843 6.929688 13.734374 6.445313 5.417969-.511719 10.132813-3.875 12.335938-8.835938 20.820312-46.820312 10.980469-100.371093-25.0625-136.414062-21.855469-21.855469-52.121094-34.390625-83.03125-34.390625-10.824219-.011719-21.566406 1.53125-31.902344 4.476562 2.941406-10.339844 4.484375-21.082031 4.472656-31.90625 0-30.90625-12.53125-61.171875-34.386718-83.027344-36.046875-36.046874-89.597656-45.886718-136.414063-25.066406-4.960937 2.207032-8.328125 6.917969-8.847656 12.324219-.488281 5.398437 2.019531 10.660156 6.441406 13.734375 26.613281 18.304688 51.292969 38.761719 73.367188 60.835938 5.851562 5.851562 5.851562 15.359374 0 21.210937-5.851563 5.851563-15.359375 5.851563-21.210938 0-25.066406-25.066406-53.78125-47.894531-85.320312-67.835937-5.933594-3.757813-13.683594-2.886719-18.644531 2.09375-13.703126 13.746093-26.746094 29.292968-38.75 46.1875-2.332032 3.28125-3.253907 7.375-2.539063 11.339843.714844 3.96875 2.992187 7.46875 6.328125 9.746094 27.449219 18.707031 52.777344 39.601563 75.285156 62.109375 5.851563 5.851562 5.851563 15.359375 0 21.210938-5.851562 5.851562-15.363281 5.851562-21.214844 0-18.714843-18.714844-40.882812-36.882813-67.75-55.546876-3.625-2.507812-8.171874-3.304687-12.441406-2.167968-4.246094 1.140625-7.800781 4.09375-9.675781 8.078125-9.132813 19.328125-16.519531 39.246093-21.957031 59.207031-1.574219 5.78125.527344 11.984375 5.105468 15.671875 15.363282 12.253906 29.851563 25.171875 43.078126 38.398437 5.851562 5.851563 5.851562 15.359376 0 21.210938-5.851563 5.855469-15.359376 5.855469-21.210938 0-2.777344-2.773438-5.738281-5.324219-8.710938-7.859375l-5.222656-4.558594c-4.246094-3.9375-10.386718-5.066406-15.761718-2.921875-5.378907 2.164063-9.035157 7.230469-9.386719 13.011719-3.3125 53.796875 5.148437 106.40625 25.148437 156.382813.769532 1.90625 1.898438 3.617187 3.316406 5.035156 1.417969 1.417968 3.128907 2.546875 5.035157 3.316406 49.976562 20 102.585937 28.460938 156.382812 25.148438 5.78125-.351563 10.847657-4.011719 13.011719-9.386719 2.144531-5.375 1.015625-11.515625-2.921875-15.761719l-4.558594-5.222656c-2.535156-2.972656-5.085937-5.933594-7.851562-8.699219-5.851563-5.851563-5.851563-15.363281 0-21.214844 5.855469-5.851562 15.363281-5.851562 21.214843 0 13.21875 13.21875 26.132813 27.710938 38.386719 43.070313 3.738281 4.628906 9.902344 6.691406 15.671875 5.105468 19.929688-5.425781 39.847656-12.8125 59.195313-21.949218 4-1.882813 6.949219-5.4375 8.089843-9.683594 1.140626-4.269531.34375-8.816406-2.164062-12.441406-18.664062-26.867188-36.832031-49.035156-55.539062-67.742188-5.851563-5.851562-5.851563-15.359375 0-21.210937 5.851562-5.851563 15.359374-5.851563 21.210937 0 22.5 22.496093 43.390625 47.824219 62.097656 75.273437 2.269531 3.324219 5.769531 5.601563 9.746094 6.328125 3.96875.714844 8.058594-.207031 11.34375-2.539062 16.894531-12.003907 32.441406-25.046875 46.183594-38.75 4.984375-4.960938 5.851562-12.707031 2.09375-18.644531zm0 0" fill="#bdf052"/><path d="m190.582031 476.648438c5.78125-.351563 10.84375-4.007813 13.011719-9.382813 2.144531-5.378906 1.015625-11.519531-2.921875-15.765625l-4.558594-5.21875c-2.539062-2.976562-5.085937-5.9375-7.851562-8.703125-5.851563-5.851563-5.851563-15.359375 0-21.210937 5.851562-5.855469 15.363281-5.855469 21.214843 0 13.214844 13.214843 26.132813 27.707031 38.386719 43.066406 3.738281 4.628906 9.902344 6.691406 15.671875 5.105468 19.929688-5.425781 39.847656-12.8125 59.195313-21.949218 3.996093-1.882813 6.949219-5.4375 8.089843-9.683594 1.140626-4.265625.34375-8.816406-2.164062-12.441406-18.664062-26.867188-36.832031-49.035156-55.539062-67.738282-5.855469-5.851562-5.855469-15.363281 0-21.214843 5.851562-5.851563 15.359374-5.851563 21.210937 0 22.5 22.5 43.390625 47.824219 62.097656 75.273437 2.265625 3.324219 5.769531 5.601563 9.746094 6.328125 3.964844.714844 8.058594-.207031 11.339844-2.539062 16.894531-12.003907 32.441406-25.042969 46.1875-38.746094 4.980469-4.960937 5.851562-12.710937 2.09375-18.644531-19.941407-31.542969-42.757813-60.242188-67.824219-85.308594-5.851562-5.855469-5.851562-15.363281 0-21.214844 5.851562-5.851562 15.359375-5.851562 21.210938 0 22.074218 22.074219 42.53125 46.757813 60.8125 73.34375 3.171874 4.476563 8.339843 6.929688 13.734374 6.445313 5.417969-.507813 10.132813-3.875 12.335938-8.835938 20.820312-46.816406 10.980469-100.367187-25.066406-136.414062-21.855469-21.855469-52.121094-34.390625-83.027344-34.390625-10.824219-.007813-21.566406 1.535156-31.90625 4.476562l-296.898438 296.898438c1.417969 1.421875 3.128907 2.550781 5.035157 3.316406 49.976562 20 102.585937 28.464844 156.382812 25.148438zm0 0" fill="#7d0"/><path d="m512 76.953125c0-8.285156-6.710938-14.996094-15-14.996094-31.019531 0-72.738281 6.546875-100.296875 18.6875-24.617187 10.847657-47.328125 26.113281-66.917969 45.707031l-194.554687 194.554688c-5.863281 5.863281-5.863281 15.351562 0 21.210938 5.863281 5.863281 15.351562 5.863281 21.210937 0l194.554688-194.554688c35.859375-35.855469 95.292968-55.609375 146.003906-55.609375 8.289062 0 15-6.710937 15-15zm0 0" fill="#7d0"/><path d="m156.441406 342.121094 194.554688-194.558594c35.859375-35.855469 95.292968-55.609375 146.003906-55.609375 8.289062 0 15-6.710937 15-15 0-8.285156-6.710938-14.996094-15-14.996094-31.019531 0-72.738281 6.550781-100.296875 18.6875l-261.472656 261.476563c5.863281 5.859375 15.351562 5.859375 21.210937 0zm0 0" fill="#1fbf66"/></svg>